<svg width="30" height="30" viewBox="0 0 30 30" fill="none" xmlns="http://www.w3.org/2000/svg">
<circle cx="14.585" cy="14.585" r="14.585" fill="url(#paint0_linear_104_684)"/>
<path d="M19.9164 26.5421C24.4628 24.4797 27.625 19.9008 27.625 14.5833C27.625 7.33458 21.7487 1.45831 14.5 1.45831C7.25126 1.45831 1.375 7.33458 1.375 14.5833C1.375 19.7596 4.37146 24.236 8.7244 26.3725C8.87248 23.4327 8.99215 20.7869 8.97413 20.7689C8.84306 20.257 8.81209 20.2181 7.84613 19.3537C5.7808 17.5054 5.04267 16.0265 4.95178 13.5549C4.85945 11.0445 5.5833 9.02723 7.13297 7.47641C7.88563 6.72324 8.58356 6.28633 9.3561 6.08473C9.78479 5.97286 10.0548 5.99718 10.6561 6.20178C11.3436 6.43573 11.4989 6.53779 12.3081 7.28735C13.3653 8.26655 13.7863 8.90842 14.2695 10.2775C15.0326 12.4394 14.8821 15.0301 13.8792 16.9966C13.6491 17.4478 13.3136 17.8399 12.1696 18.9948C10.9752 20.2004 10.7353 20.4841 10.6783 20.7577C10.6531 20.7829 10.807 23.8423 10.9929 27.2345C12.1092 27.5433 13.2854 27.7083 14.5 27.7083C15.5745 27.7083 16.6189 27.5792 17.6184 27.3356C17.7997 24.5895 17.9475 22.3092 17.9188 22.2959C18.0193 20.8316 17.8952 20.4432 17.1926 20.0229C16.0346 19.3305 15.4917 18.4255 15.449 17.117C15.4289 16.4995 16.8903 6.83909 17.0424 6.49745C17.0764 6.42087 17.1896 6.3667 17.2937 6.37703C17.4392 6.39149 17.4299 7.49139 17.2534 11.126C17.1537 13.1766 17.0561 14.5347 17.0074 15.2118C16.9943 15.3937 16.9848 15.5265 16.9797 15.6104L16.9358 16.3304L17.5849 16.3332L17.7995 11.8426C17.9987 6.78104 18.0332 6.38623 18.2782 6.38636C18.523 6.38649 18.5424 6.78063 18.5461 11.8342C18.5493 16.3413 18.5739 16.3408 18.7505 16.3377C18.7629 16.3374 18.7761 16.3372 18.79 16.3385C18.8045 16.3399 18.8181 16.3428 18.8309 16.3455C19.0069 16.3832 19.0297 16.3881 19.0279 11.8428C19.026 7.09633 19.0565 6.36173 19.2538 6.38019C19.4495 6.39848 19.4969 6.77991 19.5878 9.07048C19.887 16.6065 19.8939 16.6001 20.0979 16.4109C20.1362 16.3755 20.1814 16.3336 20.2367 16.3338C20.5509 16.3351 20.5524 16.3336 20.5453 16.0252C20.5442 15.977 20.5339 15.8232 20.5165 15.5632C20.4723 14.9033 20.3823 13.5601 20.2808 11.5274C20.0914 7.73203 20.0706 6.37376 20.2028 6.37383C20.3015 6.37388 20.4128 6.40452 20.4501 6.44188C20.6008 6.59259 22.103 16.8687 22.0475 17.4307C21.9362 18.5589 21.4242 19.3207 20.2803 20.0601C19.8819 20.3177 19.7677 20.4465 19.6539 20.7662C19.6359 20.7842 19.757 23.4253 19.9164 26.5421Z" fill="white"/>
<defs>
<linearGradient id="paint0_linear_104_684" x1="-0.00110908" y1="14.5852" x2="29.1705" y2="14.5852" gradientUnits="userSpaceOnUse">
<stop stop-color="#FFBE00"/>
<stop offset="1" stop-color="#FF1F6C"/>
</linearGradient>
</defs>
</svg>
