<svg width="61" height="28" viewBox="0 0 61 28" fill="none" xmlns="http://www.w3.org/2000/svg">
<g clip-path="url(#clip0_107_1067)">
<path d="M2.86207 22.7352V23.1405H4.2173V23.8368H2.88046V27.8102H2.03643V23.8368H1.24573V23.1405H2.03643V22.726C2.03643 21.8179 2.58257 21.2192 3.57554 21.2192C3.93596 21.2192 4.28902 21.3076 4.52623 21.4918L4.27063 22.1347C4.0941 22.0021 3.86608 21.9137 3.61967 21.9137C3.11767 21.9155 2.86207 22.1974 2.86207 22.7352Z" fill="#2B2B2B"/>
<path d="M4.51521 25.4763C4.51521 24.0837 5.54497 23.0981 6.94249 23.0981C8.34186 23.0981 9.36058 24.0855 9.36058 25.4763C9.36058 26.8689 8.34002 27.8637 6.94249 27.8637C5.54497 27.8637 4.51521 26.8689 4.51521 25.4763ZM8.50919 25.4763C8.50919 24.4816 7.83985 23.8368 6.94433 23.8368C6.04697 23.8368 5.37028 24.4797 5.37028 25.4763C5.37028 26.471 6.04697 27.125 6.94433 27.125C7.83985 27.1231 8.50919 26.471 8.50919 25.4763Z" fill="#2B2B2B"/>
<path d="M10.1016 25.4763C10.1016 24.0837 11.1314 23.0981 12.5289 23.0981C13.9283 23.0981 14.947 24.0855 14.947 25.4763C14.947 26.8689 13.9264 27.8637 12.5289 27.8637C11.1295 27.8637 10.1016 26.8689 10.1016 25.4763ZM14.0938 25.4763C14.0938 24.4816 13.4244 23.8368 12.5289 23.8368C11.6316 23.8368 10.9549 24.4797 10.9549 25.4763C10.9549 26.471 11.6316 27.125 12.5289 27.125C13.4263 27.1231 14.0938 26.471 14.0938 25.4763Z" fill="#2B2B2B"/>
<path d="M20.515 21.2726V27.8103H19.7059V27.0697C19.3271 27.5984 18.7295 27.8618 18.0436 27.8618C16.6792 27.8618 15.6862 26.9021 15.6862 25.4745C15.6862 24.0468 16.6792 23.0963 18.0436 23.0963C18.7038 23.0963 19.283 23.3431 19.671 23.846V21.2726H20.515ZM19.6802 25.4763C19.6802 24.4816 19.0035 23.8368 18.1135 23.8368C17.2161 23.8368 16.5394 24.4797 16.5394 25.4763C16.5394 26.471 17.2161 27.125 18.1135 27.125C19.0017 27.1231 19.6802 26.471 19.6802 25.4763Z" fill="#2B2B2B"/>
<path d="M24.3325 21.6963C24.3325 21.3887 24.5789 21.1418 24.9043 21.1418C25.2298 21.1418 25.4762 21.3795 25.4762 21.6797C25.4762 21.9966 25.239 22.2434 24.9043 22.2434C24.5789 22.2416 24.3325 22.0039 24.3325 21.6963ZM24.4814 23.1405H25.3254V27.8102H24.4814V23.1405Z" fill="#2B2B2B"/>
<path d="M31.3605 25.1245V27.8121H30.5165V25.2221C30.5165 24.3066 30.0586 23.8571 29.2587 23.8571C28.3614 23.8571 27.7803 24.395 27.7803 25.4081V27.8139H26.9363V23.1442H27.7454V23.8497C28.0892 23.3745 28.6869 23.1 29.4261 23.1C30.5588 23.0963 31.3605 23.7484 31.3605 25.1245Z" fill="#2B2B2B"/>
<path d="M37.9124 27.5376C37.6568 27.7587 37.2706 27.8637 36.8918 27.8637C35.9503 27.8637 35.4134 27.3442 35.4134 26.401V23.8368H34.6227V23.1405H35.4134V22.1181H36.2574V23.1405H37.5942V23.8368H36.2574V26.366C36.2574 26.8689 36.5203 27.1508 36.9874 27.1508C37.2338 27.1508 37.471 27.0716 37.6476 26.9297L37.9124 27.5376Z" fill="#2B2B2B"/>
<path d="M38.3445 25.4763C38.3445 24.0837 39.3742 23.0981 40.7718 23.0981C42.1711 23.0981 43.1898 24.0855 43.1898 25.4763C43.1898 26.8689 42.1693 27.8637 40.7718 27.8637C39.3724 27.8637 38.3445 26.8689 38.3445 25.4763ZM42.3366 25.4763C42.3366 24.4816 41.6673 23.8368 40.7699 23.8368C39.8726 23.8368 39.1959 24.4797 39.1959 25.4763C39.1959 26.471 39.8726 27.125 40.7699 27.125C41.6691 27.1231 42.3366 26.471 42.3366 25.4763Z" fill="#2B2B2B"/>
<path d="M48.7046 27.8103H47.9047V27.1047C47.5608 27.5892 46.9816 27.8618 46.3214 27.8618C45.117 27.8618 44.3152 27.2005 44.3152 25.8263V23.1387H45.1593V25.7287C45.1593 26.646 45.6171 27.1029 46.417 27.1029C47.296 27.1029 47.8587 26.5558 47.8587 25.5518V23.1368H48.7046V27.8103Z" fill="#2B2B2B"/>
<path d="M49.8833 25.4763C49.8833 24.0837 50.913 23.0981 52.3455 23.0981C53.1803 23.0981 53.8754 23.4426 54.245 24.0929L53.6033 24.5074C53.3035 24.0487 52.8475 23.8368 52.3363 23.8368C51.4224 23.8368 50.7346 24.4797 50.7346 25.4763C50.7346 26.4895 51.4205 27.125 52.3363 27.125C52.8456 27.125 53.3035 26.9131 53.6033 26.4545L54.245 26.8597C53.8754 27.5118 53.1803 27.8637 52.3455 27.8637C50.913 27.8637 49.8833 26.8689 49.8833 25.4763Z" fill="#2B2B2B"/>
<path d="M59.7009 25.1245V27.8121H58.8568V25.2221C58.8568 24.3066 58.399 23.8571 57.5991 23.8571C56.7017 23.8571 56.1206 24.395 56.1206 25.4081V27.8139H55.2766V21.2763H56.1206V23.8055C56.4718 23.356 57.0529 23.1 57.7664 23.1C58.8991 23.0963 59.7009 23.7484 59.7009 25.1245Z" fill="#2B2B2B"/>
<path fill-rule="evenodd" clip-rule="evenodd" d="M58.8366 13.9245C58.3861 14.3297 57.7241 14.5342 56.847 14.536L56.9775 14.5434C57.2975 14.571 57.6432 14.5489 58.0183 14.4808C58.4707 14.4071 58.7888 14.2818 58.9727 14.1068C59.0021 14.0884 59.0278 14.081 59.0462 14.081C59.1731 14.0884 59.2706 14.2726 59.3386 14.6373C59.3919 14.9137 59.414 15.1439 59.4048 15.3281C59.3662 16.0668 58.9285 16.415 58.0937 16.3708C57.7351 16.3524 57.2037 16.2547 56.5031 16.0816C55.8025 15.9084 55.2711 15.8108 54.9125 15.7924C54.4657 15.7684 54.234 15.9323 54.2156 16.2823C54.188 16.7981 54.633 17.2163 55.5506 17.5387C56.1997 17.7781 56.869 17.9163 57.5586 17.9531C58.4523 18.001 59.0462 17.9679 59.3441 17.8573C59.3496 17.9458 59.3496 18.0195 59.3478 18.0766C59.3129 18.7287 58.8771 19.1634 58.0385 19.3826C57.3269 19.5797 56.0783 19.6387 54.291 19.565L54.2027 19.5595C53.5812 19.5263 53.1693 19.5097 52.9652 19.5079C52.4981 19.5024 52.088 19.5208 51.7368 19.5595C51.5106 19.5871 51.3286 19.6405 51.1888 19.7197C51.1686 19.7289 51.0877 19.7879 50.9461 19.8966C50.8045 20.0052 50.7144 20.0605 50.674 20.0568C50.4607 20.0458 50.3135 19.7013 50.2326 19.0234C50.1793 18.5518 50.1646 18.0987 50.1885 17.6602C50.2087 17.2716 50.3705 17.0855 50.6703 17.1002C50.7861 17.1058 51.2845 17.1721 52.1634 17.2973C53.2833 17.4539 54.1678 17.5737 54.8169 17.6566C53.6382 17.1168 53.0019 16.5273 52.91 15.8881C52.8732 15.6726 52.8585 15.4718 52.8695 15.2858C52.8934 14.8289 53.0516 14.4789 53.3403 14.2358C53.6308 13.9926 54.0041 13.8839 54.4601 13.9079C54.6054 13.9152 54.953 13.9779 55.5009 14.0939C55.9331 14.1952 56.3339 14.256 56.7035 14.2745C57.5255 14.3223 58.2371 14.2045 58.8366 13.9245ZM59.2301 6.96866C59.2375 6.81393 59.2669 6.73656 59.3147 6.7384C59.4306 6.74393 59.5501 6.88761 59.6714 7.16761C59.7689 7.37761 59.8351 7.56366 59.87 7.72577C59.905 7.88787 59.9179 8.04814 59.9105 8.20287C59.9013 8.37787 59.8664 8.49761 59.8038 8.56209C59.5446 8.8513 58.809 9.04656 57.5972 9.14787C59.1198 9.6084 59.8645 10.1702 59.8296 10.8316C59.802 11.3566 59.5023 11.7802 58.9304 12.1008C58.4891 12.3495 57.9595 12.5079 57.3435 12.5723C57.3637 12.5742 57.474 12.5834 57.6781 12.6055C58.1231 12.6479 58.5295 12.5742 58.8936 12.3845C59.2595 12.1947 59.4931 11.9405 59.5979 11.6255C59.5905 12.1229 59.3735 12.471 58.9433 12.6737C58.6031 12.8413 57.9429 12.8984 56.9628 12.8468C56.7403 12.8358 56.4056 12.8026 55.9606 12.7492C55.5156 12.6958 55.1865 12.6645 54.9732 12.6534C54.4289 12.6239 54.0317 12.7013 53.7779 12.8818C53.7283 12.9187 53.6823 12.9352 53.6437 12.9334C53.4396 12.9223 53.2667 12.6884 53.1251 12.2334C52.9983 11.8558 52.9431 11.5463 52.956 11.3031C52.9872 10.71 53.4396 10.4373 54.313 10.4834C54.5944 10.4981 55.0155 10.5516 55.5745 10.6455C56.1335 10.7395 56.5546 10.7929 56.8359 10.8076C57.68 10.8518 58.1139 10.6658 58.136 10.2476C58.1489 10.0045 57.8013 9.79998 57.0952 9.63603C56.7017 9.54761 56.0342 9.44814 55.1001 9.33945C54.37 9.26208 53.9912 9.19209 53.9655 9.13314C53.6529 9.10735 53.4414 9.05577 53.3293 8.98208C53.1674 8.87524 53.0939 8.6763 53.1104 8.38524C53.1215 8.16235 53.2355 7.7534 53.4525 7.16024C53.5003 7.04603 54.0023 7.01472 54.9677 7.06445C55.1847 7.0755 55.5046 7.09761 55.9331 7.13077C56.3634 7.15287 56.6833 7.1713 56.8985 7.18235C58.4413 7.2634 59.2191 7.19156 59.2301 6.96866ZM54.8996 3.59393C53.9508 3.14445 53.4984 2.48129 53.5444 1.60629C53.6032 0.508398 54.5043 0.00365999 56.253 0.0976074C56.8157 0.127081 57.4041 0.235765 58.0165 0.425502C58.7539 0.659449 59.2743 0.944977 59.5777 1.28392C59.9087 1.64314 60.0521 2.26393 60.0043 3.14998C59.9804 3.5884 59.9307 3.80393 59.8535 3.80024C59.8443 3.77998 59.8241 3.71182 59.791 3.59208C59.7432 3.37471 59.6659 3.18129 59.5593 3.00998C59.3184 2.60656 58.9285 2.3284 58.3916 2.17366C59.1106 2.56235 59.4545 3.0634 59.4214 3.67682C59.4177 3.73577 59.4085 3.7984 59.3901 3.86471C59.3717 3.93287 59.3588 3.96603 59.3478 3.96419C59.3386 3.96419 59.3331 3.95314 59.3349 3.93471C59.3202 3.83708 59.2853 3.68787 59.2264 3.49077C59.0518 3.11129 58.684 2.79445 58.1231 2.54024C57.6579 2.33024 57.1761 2.21235 56.6815 2.18656C56.3523 2.16814 56.0471 2.20682 55.7694 2.29892C55.3924 2.42603 55.1975 2.63419 55.181 2.92524C55.1699 3.1205 55.3171 3.3084 55.6186 3.48893C55.8448 3.61787 56.0838 3.70814 56.3339 3.76156C56.3431 3.76156 56.6962 3.80024 57.3931 3.87577C58.342 3.98445 58.9947 4.04893 59.3533 4.06735C59.6255 4.08208 59.7928 4.07656 59.8572 4.05077C59.9215 4.02498 59.9546 4.01208 59.9546 4.01208C59.9932 4.01393 60.0098 4.05814 60.0061 4.14656C59.9914 4.43761 59.8645 4.71393 59.6273 4.9755C59.3901 5.23524 59.1253 5.39735 58.8348 5.45998C58.5442 5.52261 57.8878 5.57603 56.8635 5.6184C56.1022 5.64603 54.5889 5.64972 52.3216 5.62577C51.9814 5.62761 51.6669 5.70866 51.3819 5.86893C51.0969 6.02919 50.9719 6.11024 51.0105 6.11208C50.9038 6.10656 50.8303 5.93708 50.7898 5.60366C50.7641 5.36787 50.7549 5.14866 50.7659 4.94419C50.81 4.09866 51.0417 3.60314 51.4573 3.45945C51.6357 3.39129 52.066 3.37471 52.7445 3.40971C53.2723 3.4355 53.9894 3.49814 54.8996 3.59393Z" fill="#2B2B2B"/>
<path fill-rule="evenodd" clip-rule="evenodd" d="M16.2838 3.21814C16.4438 5.69946 16.5928 8.19551 16.7344 10.7026C16.9992 14.3997 17.389 16.6508 17.902 17.4447C17.9554 17.5202 17.9811 17.5866 17.9811 17.6437C17.9811 17.9126 17.6887 18.13 17.1058 18.3013C16.6645 18.4339 16.2655 18.5002 15.9124 18.5002C15.0279 18.5002 14.3953 18.2829 14.0165 17.8481C13.6359 17.4134 13.4465 16.7226 13.4465 15.7776C13.4465 14.6816 13.544 13.2245 13.7389 11.41C13.9687 9.23446 14.1011 7.77919 14.1361 7.04235C13.1633 8.80156 12.4921 10.0487 12.1207 10.7874C11.1479 12.6589 10.5816 13.9171 10.4234 14.56C10.3536 14.8621 10.2285 15.0131 10.052 15.0131C9.96373 15.0131 9.85707 14.9763 9.73387 14.8989C9.45069 14.8989 9.13257 14.6724 8.77951 14.2174C8.58459 13.9724 8.12488 13.1397 7.40037 11.7213C6.94066 10.8131 6.21615 9.45183 5.22501 7.63735C5.82632 11.2866 6.12605 14.1142 6.12605 16.1184C6.12605 16.5716 6.10031 16.8939 6.04698 17.0837C5.79873 18.0287 4.96757 18.5021 3.5535 18.5021C3.14711 18.5021 2.6874 18.4358 2.17436 18.3031C1.4664 18.1337 1.11334 17.896 1.11334 17.5939C1.11334 17.5571 1.13173 17.5 1.16667 17.4245C1.66132 16.6876 2.05115 15.2121 2.33434 12.9997C2.5458 11.2792 2.65246 9.6913 2.65246 8.23419C2.65246 6.57077 2.45754 4.97183 2.06954 3.44104C1.94634 3.38393 1.82681 3.32683 1.71097 3.27156C1.59512 3.21446 1.53812 3.08183 1.53812 2.87367C1.53812 2.32472 1.77165 1.81999 2.24056 1.35577C2.70946 0.891564 3.20044 0.661301 3.71348 0.661301C4.1548 0.661301 4.46925 0.703669 4.65497 0.788406C4.84069 0.873143 5.05768 1.09604 5.30408 1.45525C5.35741 1.51235 5.7638 2.3063 6.52508 3.83709C7.53277 5.85972 8.41725 7.64841 9.1767 9.19762C9.61802 7.67604 10.1586 6.16183 10.7949 4.65867C11.7492 2.42788 12.5712 1.19367 13.2608 0.943143C13.7738 0.753406 14.3659 0.659459 15.0371 0.659459C16.4162 0.659459 17.1058 0.991038 17.1058 1.65788C17.1058 1.78498 16.8318 2.30446 16.2838 3.21814ZM3.36594 9.33577C3.40088 8.65419 3.41926 8.03156 3.41926 7.46419C3.41926 6.23551 3.34019 5.23341 3.18021 4.45788C2.88048 4.08025 2.60465 3.80577 2.35824 3.63446C2.92461 5.08972 3.25928 6.99077 3.36594 9.33577ZM23.4976 13.2502C23.5326 15.7647 24.3196 17.0229 25.8587 17.0229C26.5299 17.0229 27.1496 16.7779 27.7159 16.286C28.0157 16.041 28.4754 15.5197 29.0951 14.7258C29.1135 14.6871 29.1484 14.6502 29.2017 14.6116C29.2716 14.6116 29.3084 14.7534 29.3084 15.0371C29.3084 15.4718 29.1668 15.9452 28.8836 16.4555C27.9991 18.025 26.5501 18.8281 24.5329 18.8668L24.2405 18.8945C20.9508 18.9516 19.3069 16.7392 19.3069 12.2574C19.3069 11.2921 19.4135 10.3471 19.625 9.42051C19.8898 8.26735 20.2613 7.40709 20.7394 6.83972C20.9692 6.59472 21.2873 6.4142 21.6937 6.29998C22.0468 6.20604 22.4017 6.11946 22.7547 6.04393C22.9497 5.96841 23.0912 5.92972 23.1795 5.92972C23.2494 5.92972 23.3027 5.92972 23.3395 5.92972C23.516 5.87262 23.8433 5.84498 24.3214 5.84498C24.6396 5.84498 24.9485 5.87262 25.2501 5.92972C25.6914 5.72156 26.0187 5.61841 26.232 5.61841C27.0448 5.61841 27.749 5.96288 28.3412 6.64814C28.9333 7.33893 29.2293 8.11446 29.2293 8.9784C29.2293 11.1668 27.8502 12.6847 25.0919 13.5302C24.6855 13.6629 24.3141 13.7292 23.9776 13.7292C23.8544 13.7292 23.7385 13.72 23.6319 13.7016C24.9043 13.5321 25.8072 12.9647 26.3368 11.9995L26.3111 12.0271C25.4781 12.7676 24.5421 13.1747 23.4976 13.2502ZM23.4976 12.7381C25.1949 12.2647 26.0444 10.9605 26.0444 8.82367C26.0444 8.06656 25.6381 7.54709 24.8234 7.26341C23.9923 8.64498 23.551 10.4705 23.4976 12.7381ZM42.3697 17.1924C42.6088 17.1924 42.7283 17.2679 42.7283 17.4189C42.7283 17.8168 42.401 18.1945 41.7464 18.5537C41.1634 18.876 40.667 19.0363 40.2606 19.0363C40.0657 19.0363 39.8799 19.0087 39.7034 18.9516C38.8189 18.7066 38.2176 16.8055 37.8995 13.2502C36.4854 16.8626 35.1504 18.6495 33.8945 18.6108H33.8411C32.8151 18.5721 32.0998 18.4302 31.6934 18.1852C31.2153 17.8629 30.8714 17.22 30.6581 16.2566C30.5515 15.7647 30.5 15.1974 30.5 14.5545C30.5 13.23 30.7041 11.7471 31.1105 10.1021C31.6235 8.1163 32.2505 6.84893 32.9934 6.30183C33.6481 5.80998 34.505 5.56498 35.566 5.56498C35.9025 5.56498 36.4155 5.6313 37.1051 5.76393C37.9712 5.91498 38.4052 6.0863 38.4052 6.2742C38.4052 6.29262 38.3794 6.31288 38.3261 6.3313C37.2835 6.69051 36.3457 7.68341 35.5145 9.30998C34.7532 10.8039 34.3744 12.1837 34.3744 13.451C34.3744 13.8489 34.4443 14.245 34.5859 14.6429C34.7624 15.1531 35.0015 15.4092 35.3012 15.4092C35.9025 15.4092 36.6105 13.9724 37.4232 11.0968C37.5299 10.8131 37.6439 10.4152 37.7689 9.90498C37.7505 9.50709 37.8039 8.95077 37.9289 8.23051C38.3702 7.09577 39.2198 6.52841 40.4757 6.52841C40.7938 6.52841 41.0513 6.56709 41.2444 6.64262C41.4393 6.71814 41.5533 7.75893 41.5901 9.76314C41.6084 10.9347 41.625 12.1174 41.6434 13.3092C41.6434 13.9705 41.7059 14.945 41.8291 16.2308C41.9505 16.8718 42.1307 17.1924 42.3697 17.1924ZM33.4973 13.5045C33.4973 14.0534 33.6297 14.5452 33.8945 14.98C34.1777 15.5087 34.5491 15.7739 35.0088 15.7739C35.0971 15.7739 35.1853 15.7647 35.2736 15.7463C34.8488 15.7095 34.5123 15.3595 34.2659 14.6963C34.071 14.186 33.9735 13.6463 33.9735 13.0789C33.9735 12.1524 34.1059 11.1871 34.3707 10.185C33.7897 11.34 33.4973 12.4452 33.4973 13.5045ZM47.4486 0.287354C48.1566 0.287354 48.5096 0.598669 48.5096 1.22314C48.5096 1.35577 48.403 3.04867 48.1915 6.29998C47.7851 12.2942 47.581 15.9729 47.581 17.3342C47.581 18.2608 47.7134 19.0547 47.9782 19.716C47.7134 19.2997 47.5534 19.0345 47.5001 18.9221C47.4468 18.8079 47.3677 18.515 47.2611 18.0434C47.0845 17.1924 47.0128 15.726 47.0496 13.6463C46.9963 13.0789 46.9613 11.9829 46.9429 10.3563C46.9246 10.546 46.8547 11.2166 46.7315 12.3697C46.6616 12.9187 46.6248 13.5984 46.6248 14.4126C46.6248 15.1881 46.7039 16.2179 46.8639 17.5037C46.9338 18.1852 47.0147 18.6292 47.1029 18.8374C47.2261 19.1579 47.4744 19.4987 47.8458 19.8579C46.0254 19.2537 44.9552 18.2405 44.637 16.8221C44.4789 16.1037 44.3447 14.8547 44.2398 13.0771C44.1865 12.1321 44.1074 9.94735 44.0008 6.52472C44.0008 5.84314 43.9567 4.84104 43.8684 3.51841C43.7452 2.79998 43.5245 2.26025 43.2046 1.90104C42.9747 1.65604 42.8589 1.51419 42.8589 1.47551C42.8589 1.05919 43.5227 0.738669 44.8485 0.510248C45.7514 0.36288 46.6193 0.287354 47.4486 0.287354Z" fill="url(#paint0_linear_107_1067)"/>
</g>
<defs>
<linearGradient id="paint0_linear_107_1067" x1="1.11154" y1="10.0727" x2="48.5104" y2="10.0727" gradientUnits="userSpaceOnUse">
<stop stop-color="#FFBE00"/>
<stop offset="1" stop-color="#FF1F6C"/>
</linearGradient>
<clipPath id="clip0_107_1067">
<rect width="59.027" height="28" fill="white" transform="translate(0.98645)"/>
</clipPath>
</defs>
</svg>
