<svg width="8" height="15" viewBox="0 0 8 15" fill="none" xmlns="http://www.w3.org/2000/svg">
<path fill-rule="evenodd" clip-rule="evenodd" d="M2.19368 1.60079C2.19368 2.19368 2.54941 2.78656 3.083 3.02372C4.03162 3.49802 5.39526 2.96443 5.39526 1.5415C5.39526 0.711462 4.68379 0 3.85375 0C3.32016 0 3.02372 0.118577 2.6087 0.474308C2.37154 0.770751 2.19368 1.18577 2.19368 1.60079ZM0 8.41897C0 8.59684 0.0592885 8.71542 0.237154 8.83399C0.296443 8.89328 0.592885 9.01186 0.652174 9.01186C1.06719 9.07115 1.18577 8.83399 1.30435 8.53755L2.0751 6.99605C2.13439 6.93676 2.13439 6.99605 2.13439 6.93676V8.53755C2.13439 8.83399 1.89723 9.48617 1.77866 9.78261C1.71937 10.0791 1.66008 10.3755 1.5415 10.6126C1.36364 11.2055 1.18577 11.6798 1.00791 12.2727C0.948617 12.3913 0.948617 12.5099 0.889328 12.6877C0.770751 13.0435 0.533597 13.6364 0.533597 13.9921C0.533597 14.585 1.36364 14.9407 1.89723 14.585C2.13439 14.4071 2.19368 14.2292 2.31225 13.8735L3.67589 9.60474C3.73518 9.8419 4.09091 10.5534 4.20949 10.8498C4.44664 11.5613 4.56522 12.332 4.62451 13.1028C4.62451 13.4585 4.74308 14.4071 4.86166 14.6443C4.98024 14.8814 5.1581 15 5.39526 15H5.51383C5.98814 15 6.40316 14.6443 6.40316 14.17L6.2253 12.5099C6.10672 11.502 6.04743 10.7312 5.6917 9.78261L5.21739 8.83399C5.09881 8.59684 5.1581 8.3004 5.1581 7.94466C5.81028 8.41897 6.10672 9.48617 6.81818 8.7747C7.05534 8.53755 7.17391 8.3004 6.93676 8.00395L6.28458 7.29249C6.10672 7.05534 5.39526 6.34387 5.27668 6.10672C5.21739 5.86957 5.21739 5.57312 5.21739 5.27668L5.1581 4.03162C5.1581 3.79447 4.92095 3.6166 4.68379 3.6166H2.66798C2.0751 3.6166 1.89723 4.26877 1.60079 4.86166L0.118577 8.06324C0.0592885 8.12253 0 8.24111 0 8.41897Z" fill="#E95A8B"/>
</svg>
